<svg xmlns="http://www.w3.org/2000/svg" version="1.1" xmlns:xlink="http://www.w3.org/1999/xlink" width="512" height="512" x="0" y="0" viewBox="0 0 32 32" style="enable-background:new 0 0 512 512" xml:space="preserve"><g><path d="M30.34 1.66a1 1 0 0 0-1.024-.242l-27.6 9.2a1 1 0 0 0-.17 1.823l11.579 6.432 6.432 11.579a1 1 0 0 0 .874.514c.03 0 .062 0 .093-.005a1 1 0 0 0 .856-.679l9.2-27.6a1 1 0 0 0-.24-1.022zM4.507 11.8l21.424-7.145-12.119 12.119a.919.919 0 0 0-.093.14zm15.7 15.7-5.117-9.212a.919.919 0 0 0 .14-.093L27.345 6.069z" fill="#5b5b5b" opacity="1" data-original="#000000"></path></g></svg>